<svg width="32" height="33" viewBox="0 0 32 33" fill="none" xmlns="http://www.w3.org/2000/svg">
<path d="M1.33398 29.833C1.33398 30.553 1.93398 31.1663 2.66732 31.1663H20.0007C20.7473 31.1663 21.334 30.553 21.334 29.833V28.4997H1.33398V29.833ZM11.334 12.4997C6.33398 12.4997 1.33398 15.1663 1.33398 20.4997H21.334C21.334 15.1663 16.334 12.4997 11.334 12.4997ZM4.82732 17.833C6.30732 15.7663 9.45398 15.1663 11.334 15.1663C13.214 15.1663 16.3607 15.7663 17.8407 17.833H4.82732ZM1.33398 23.1663H21.334V25.833H1.33398V23.1663ZM24.0007 7.16634V1.83301H21.334V7.16634H14.6673L14.974 9.83301H27.7207L25.854 28.4997H24.0007V31.1663H26.294C27.414 31.1663 28.334 30.2997 28.4673 29.2063L30.6673 7.16634H24.0007Z" fill="#418612"/>
</svg>
