<svg width="151" height="35" viewBox="0 0 151 35" fill="none" xmlns="http://www.w3.org/2000/svg">
<path d="M5.55859 1.40625V27H0.285156V1.40625H5.55859ZM15.7539 12.3398V16.4531H4.11719V12.3398H15.7539ZM16.9844 1.40625V5.53711H4.11719V1.40625H16.9844ZM18.5672 17.6836V17.3145C18.5672 15.9199 18.7665 14.6367 19.1649 13.4648C19.5633 12.2812 20.1434 11.2559 20.9051 10.3887C21.6669 9.52148 22.6044 8.84766 23.7176 8.36719C24.8309 7.875 26.1083 7.62891 27.5497 7.62891C28.9911 7.62891 30.2743 7.875 31.3993 8.36719C32.5243 8.84766 33.4676 9.52148 34.2294 10.3887C35.0028 11.2559 35.5887 12.2812 35.9872 13.4648C36.3856 14.6367 36.5848 15.9199 36.5848 17.3145V17.6836C36.5848 19.0664 36.3856 20.3496 35.9872 21.5332C35.5887 22.7051 35.0028 23.7305 34.2294 24.6094C33.4676 25.4766 32.5301 26.1504 31.4169 26.6309C30.3036 27.1113 29.0262 27.3516 27.5848 27.3516C26.1434 27.3516 24.8602 27.1113 23.7352 26.6309C22.6219 26.1504 21.6786 25.4766 20.9051 24.6094C20.1434 23.7305 19.5633 22.7051 19.1649 21.5332C18.7665 20.3496 18.5672 19.0664 18.5672 17.6836ZM23.6297 17.3145V17.6836C23.6297 18.4805 23.7001 19.2246 23.8407 19.916C23.9813 20.6074 24.204 21.2168 24.5087 21.7441C24.8251 22.2598 25.2352 22.6641 25.7391 22.957C26.243 23.25 26.8583 23.3965 27.5848 23.3965C28.288 23.3965 28.8915 23.25 29.3954 22.957C29.8993 22.6641 30.3036 22.2598 30.6083 21.7441C30.913 21.2168 31.1356 20.6074 31.2762 19.916C31.4286 19.2246 31.5047 18.4805 31.5047 17.6836V17.3145C31.5047 16.541 31.4286 15.8145 31.2762 15.1348C31.1356 14.4434 30.9071 13.834 30.5907 13.3066C30.286 12.7676 29.8817 12.3457 29.3778 12.041C28.8739 11.7363 28.2645 11.584 27.5497 11.584C26.8348 11.584 26.2255 11.7363 25.7215 12.041C25.2294 12.3457 24.8251 12.7676 24.5087 13.3066C24.204 13.834 23.9813 14.4434 23.8407 15.1348C23.7001 15.8145 23.6297 16.541 23.6297 17.3145ZM38.9236 17.6836V17.3145C38.9236 15.9199 39.1228 14.6367 39.5212 13.4648C39.9197 12.2812 40.4997 11.2559 41.2615 10.3887C42.0232 9.52148 42.9607 8.84766 44.074 8.36719C45.1872 7.875 46.4646 7.62891 47.906 7.62891C49.3474 7.62891 50.6306 7.875 51.7556 8.36719C52.8806 8.84766 53.824 9.52148 54.5857 10.3887C55.3591 11.2559 55.945 12.2812 56.3435 13.4648C56.7419 14.6367 56.9411 15.9199 56.9411 17.3145V17.6836C56.9411 19.0664 56.7419 20.3496 56.3435 21.5332C55.945 22.7051 55.3591 23.7305 54.5857 24.6094C53.824 25.4766 52.8865 26.1504 51.7732 26.6309C50.6599 27.1113 49.3825 27.3516 47.9411 27.3516C46.4997 27.3516 45.2165 27.1113 44.0915 26.6309C42.9782 26.1504 42.0349 25.4766 41.2615 24.6094C40.4997 23.7305 39.9197 22.7051 39.5212 21.5332C39.1228 20.3496 38.9236 19.0664 38.9236 17.6836ZM43.9861 17.3145V17.6836C43.9861 18.4805 44.0564 19.2246 44.197 19.916C44.3376 20.6074 44.5603 21.2168 44.865 21.7441C45.1814 22.2598 45.5915 22.6641 46.0954 22.957C46.5993 23.25 47.2146 23.3965 47.9411 23.3965C48.6443 23.3965 49.2478 23.25 49.7517 22.957C50.2556 22.6641 50.6599 22.2598 50.9646 21.7441C51.2693 21.2168 51.4919 20.6074 51.6325 19.916C51.7849 19.2246 51.8611 18.4805 51.8611 17.6836V17.3145C51.8611 16.541 51.7849 15.8145 51.6325 15.1348C51.4919 14.4434 51.2634 13.834 50.947 13.3066C50.6423 12.7676 50.238 12.3457 49.7341 12.041C49.2302 11.7363 48.6208 11.584 47.906 11.584C47.1911 11.584 46.5818 11.7363 46.0779 12.041C45.5857 12.3457 45.1814 12.7676 44.865 13.3066C44.5603 13.834 44.3376 14.4434 44.197 15.1348C44.0564 15.8145 43.9861 16.541 43.9861 17.3145ZM71.3209 22.8516V0H76.4185V27H71.8307L71.3209 22.8516ZM59.2975 17.7188V17.3496C59.2975 15.8965 59.4615 14.5781 59.7896 13.3945C60.1178 12.1992 60.5982 11.1738 61.231 10.3184C61.8639 9.46289 62.6432 8.80078 63.5689 8.33203C64.4947 7.86328 65.5494 7.62891 66.733 7.62891C67.8463 7.62891 68.8189 7.86328 69.651 8.33203C70.4947 8.80078 71.2096 9.46875 71.7955 10.3359C72.3932 11.1914 72.8736 12.2051 73.2369 13.377C73.6002 14.5371 73.8639 15.8086 74.0279 17.1914V18C73.8639 19.3242 73.6002 20.5547 73.2369 21.6914C72.8736 22.8281 72.3932 23.8242 71.7955 24.6797C71.2096 25.5234 70.4947 26.1797 69.651 26.6484C68.8072 27.1172 67.8228 27.3516 66.6978 27.3516C65.5143 27.3516 64.4596 27.1113 63.5338 26.6309C62.6197 26.1504 61.8463 25.4766 61.2135 24.6094C60.5924 23.7422 60.1178 22.7227 59.7896 21.5508C59.4615 20.3789 59.2975 19.1016 59.2975 17.7188ZM64.36 17.3496V17.7188C64.36 18.5039 64.4185 19.2363 64.5357 19.916C64.6646 20.5957 64.8697 21.1992 65.151 21.7266C65.4439 22.2422 65.8189 22.6465 66.276 22.9395C66.7447 23.2207 67.3131 23.3613 67.981 23.3613C68.8482 23.3613 69.5631 23.168 70.1256 22.7812C70.6881 22.3828 71.1158 21.8379 71.4088 21.1465C71.7135 20.4551 71.8893 19.6582 71.9361 18.7559V16.4531C71.901 15.7148 71.7955 15.0527 71.6197 14.4668C71.4557 13.8691 71.2096 13.3594 70.8814 12.9375C70.565 12.5156 70.1666 12.1875 69.6861 11.9531C69.2174 11.7188 68.6607 11.6016 68.0162 11.6016C67.36 11.6016 66.7975 11.7539 66.3287 12.0586C65.86 12.3516 65.4791 12.7559 65.1861 13.2715C64.9049 13.7871 64.6939 14.3965 64.5533 15.0996C64.4244 15.791 64.36 16.541 64.36 17.3496ZM100.133 5.7832L93.1722 27H87.5648L97.0745 1.40625H100.643L100.133 5.7832ZM105.916 27L98.9378 5.7832L98.3753 1.40625H101.979L111.541 27H105.916ZM105.6 17.4727V21.6035H92.0823V17.4727H105.6ZM118.134 11.6367V34.3125H113.071V7.98047H117.765L118.134 11.6367ZM130.175 17.2793V17.6484C130.175 19.0312 130.011 20.3145 129.683 21.498C129.366 22.6816 128.898 23.7129 128.277 24.5918C127.655 25.459 126.882 26.1387 125.956 26.6309C125.042 27.1113 123.987 27.3516 122.792 27.3516C121.632 27.3516 120.624 27.1172 119.769 26.6484C118.913 26.1797 118.193 25.5234 117.607 24.6797C117.032 23.8242 116.57 22.834 116.218 21.709C115.866 20.584 115.597 19.377 115.409 18.0879V17.1211C115.597 15.7383 115.866 14.4727 116.218 13.3242C116.57 12.1641 117.032 11.1621 117.607 10.3184C118.193 9.46289 118.907 8.80078 119.751 8.33203C120.607 7.86328 121.609 7.62891 122.757 7.62891C123.964 7.62891 125.025 7.85742 125.939 8.31445C126.864 8.77148 127.638 9.42773 128.259 10.2832C128.892 11.1387 129.366 12.1582 129.683 13.3418C130.011 14.5254 130.175 15.8379 130.175 17.2793ZM125.095 17.6484V17.2793C125.095 16.4707 125.025 15.7266 124.884 15.0469C124.755 14.3555 124.544 13.752 124.251 13.2363C123.97 12.7207 123.595 12.3223 123.126 12.041C122.669 11.748 122.112 11.6016 121.456 11.6016C120.765 11.6016 120.173 11.7129 119.681 11.9355C119.2 12.1582 118.808 12.4805 118.503 12.9023C118.198 13.3242 117.97 13.8281 117.818 14.4141C117.665 15 117.571 15.6621 117.536 16.4004V18.8438C117.595 19.7109 117.759 20.4902 118.029 21.1816C118.298 21.8613 118.714 22.4004 119.277 22.7988C119.839 23.1973 120.577 23.3965 121.491 23.3965C122.159 23.3965 122.722 23.25 123.179 22.957C123.636 22.6523 124.005 22.2363 124.286 21.709C124.579 21.1816 124.784 20.5723 124.902 19.8809C125.03 19.1895 125.095 18.4453 125.095 17.6484ZM138.42 11.6367V34.3125H133.357V7.98047H138.051L138.42 11.6367ZM150.461 17.2793V17.6484C150.461 19.0312 150.297 20.3145 149.969 21.498C149.652 22.6816 149.184 23.7129 148.563 24.5918C147.941 25.459 147.168 26.1387 146.242 26.6309C145.328 27.1113 144.273 27.3516 143.078 27.3516C141.918 27.3516 140.91 27.1172 140.055 26.6484C139.199 26.1797 138.479 25.5234 137.893 24.6797C137.318 23.8242 136.856 22.834 136.504 21.709C136.152 20.584 135.883 19.377 135.695 18.0879V17.1211C135.883 15.7383 136.152 14.4727 136.504 13.3242C136.856 12.1641 137.318 11.1621 137.893 10.3184C138.479 9.46289 139.193 8.80078 140.037 8.33203C140.893 7.86328 141.895 7.62891 143.043 7.62891C144.25 7.62891 145.311 7.85742 146.225 8.31445C147.15 8.77148 147.924 9.42773 148.545 10.2832C149.178 11.1387 149.652 12.1582 149.969 13.3418C150.297 14.5254 150.461 15.8379 150.461 17.2793ZM145.381 17.6484V17.2793C145.381 16.4707 145.311 15.7266 145.17 15.0469C145.041 14.3555 144.83 13.752 144.537 13.2363C144.256 12.7207 143.881 12.3223 143.412 12.041C142.955 11.748 142.398 11.6016 141.742 11.6016C141.051 11.6016 140.459 11.7129 139.967 11.9355C139.486 12.1582 139.094 12.4805 138.789 12.9023C138.484 13.3242 138.256 13.8281 138.104 14.4141C137.951 15 137.857 15.6621 137.822 16.4004V18.8438C137.881 19.7109 138.045 20.4902 138.314 21.1816C138.584 21.8613 139 22.4004 139.563 22.7988C140.125 23.1973 140.863 23.3965 141.777 23.3965C142.445 23.3965 143.008 23.25 143.465 22.957C143.922 22.6523 144.291 22.2363 144.572 21.709C144.865 21.1816 145.07 20.5723 145.188 19.8809C145.316 19.1895 145.381 18.4453 145.381 17.6484Z" fill="#418612"/>
</svg>
