<svg width="32" height="33" viewBox="0 0 32 33" fill="none" xmlns="http://www.w3.org/2000/svg">
<g clip-path="url(#clip0_2916_1849)">
<path d="M28.9388 3.08504H10.3136L9.1163 6.07824H15.1027M28.0007 2.5L28.8714 21.0442L29.47 25.2347H30.6673V30.6225H1.93262V25.8333H3.1299L2.53126 20.4456H1.33398L3.1299 15.6565H14.5041L16.3 20.4456H15.1027L14.5041 25.2347H25.2796C25.4791 22.8401 25.9979 16.8538 26.4768 12.0646C26.9558 7.27552 27.6016 3.49773 28.0007 2.5Z" stroke="#418612" stroke-width="2.13333"/>
<path d="M2.53125 20.4453H15.1027" stroke="#418612" stroke-width="2.13333"/>
<path d="M3.13086 25.833H30.6683" stroke="#418612" stroke-width="1.73333"/>
<path d="M10.313 6.07813L9.1155 15.6563" stroke="#418612" stroke-width="1.73333"/>
<path d="M6.12305 23.199V21.2834C6.12305 21.1512 6.23026 21.0439 6.3625 21.0439H10.6727C10.805 21.0439 10.9122 21.1512 10.9122 21.2834V23.199C10.9122 23.3313 10.805 23.4385 10.6727 23.4385H6.3625C6.23025 23.4385 6.12305 23.3313 6.12305 23.199Z" stroke="#418612" stroke-width="1.19728"/>
<path d="M17.0383 3.27286L16.1599 9.20105C16.1294 9.40715 16.3584 9.55122 16.531 9.43447L17.5145 8.76903C17.6352 8.68737 17.8002 8.73154 17.864 8.86257L18.3573 9.87625C18.4445 10.0554 18.6997 10.0559 18.7875 9.87708L19.3077 8.81877C19.3956 8.63993 19.6507 8.64042 19.7379 8.81959L19.9922 9.34215C20.0971 9.55755 20.4182 9.50256 20.4454 9.26454L21.1928 2.72465" stroke="#418612" stroke-width="1.19728"/>
<path d="M27.0762 6.67676H21.0898" stroke="#418612" stroke-width="1.19728"/>
<path d="M18.6954 25.833V28.5867C18.6954 28.719 18.5882 28.8262 18.4559 28.8262H14.1457C14.0135 28.8262 13.9062 28.719 13.9062 28.5867V27.0303" stroke="#418612" stroke-width="0.8"/>
</g>
<defs>
<clipPath id="clip0_2916_1849">
<rect width="32" height="32" fill="#418612" transform="translate(0 0.5)"/>
</clipPath>
</defs>
</svg>
