<svg width="128" height="118" viewBox="0 0 128 118" fill="none" xmlns="http://www.w3.org/2000/svg">
<path d="M57.7504 0.464401C42.4254 2.13871 30.0504 7.41394 19.4004 16.8405C9.45039 25.6249 3.15039 36.7029 0.675391 49.6387C0.200391 52.1387 0.150391 53.3543 0.150391 59.0424C0.150391 64.7305 0.200391 65.946 0.675391 68.446C3.02539 80.8084 8.67539 91.0837 18.0004 99.9598C27.5754 109.065 39.6504 114.868 53.7504 117.139C56.4754 117.574 57.8004 117.62 64.0004 117.62C71.8254 117.62 74.1754 117.391 80.3254 115.946C102.35 110.717 120.325 94.2259 126.025 74.0194C127.6 68.3772 127.85 66.2213 127.85 59.0424C127.85 51.8635 127.6 49.7075 126.025 44.0653C120.325 23.8589 102.375 7.36806 80.3254 2.13871C74.6754 0.808434 71.9754 0.510269 65.0004 0.44146C61.5004 0.395592 58.2254 0.418526 57.7504 0.464401ZM71.0004 5.23504C84.3004 6.77174 95.9504 11.9552 105.45 20.5791C110.375 25.0286 113.825 29.4323 116.875 35.0745C121 42.758 122.675 48.9048 122.925 57.3681C123.225 67.0011 121.325 74.9827 116.85 83.1938C112.25 91.5653 105.05 99.0424 96.5254 104.226C86.8504 110.12 75.7754 113.171 64.0004 113.171C47.8504 113.171 33.2004 107.483 21.8504 96.8405C17.3254 92.5974 14.4754 88.9965 11.6004 83.9506C7.10039 76.0149 5.00039 68.0791 5.00039 59.0424C5.00039 50.0057 7.10039 42.0699 11.6004 34.1341C14.6504 28.7442 18.0504 24.5928 23.0504 20.1662C32.5004 11.7259 44.1254 6.65706 57.3754 5.16624C60.2504 4.84513 67.9004 4.89101 71.0004 5.23504Z" fill="#418612"/>
<path d="M56.875 9.86808C44.875 11.3589 34.175 16.2442 25.575 24.1571C15.475 33.469 10 45.7167 10 59.0424C10 66.4277 11.45 72.7121 14.65 79.3405C18.725 87.7121 25.625 95.1433 34.2 100.396C36.2 101.611 40.725 103.882 40.85 103.721C40.925 103.652 42.525 75.1433 42.5 74.1571C42.5 73.6525 42.325 73.5149 41.45 73.2855C34.575 71.4506 29.675 65.9002 27.85 57.9185C26.3 51.0378 27.35 44.5011 30.8 39.4323C35.075 33.1938 41.775 29.5699 47.55 30.3956C53.15 31.1983 58.675 35.3038 61.85 41.0378C63.75 44.4782 64.525 47.5286 64.525 51.6341C64.5 59.1341 61.65 66.0607 56.95 69.9369C55.275 71.313 53.975 72.0011 51.3 72.9185L49.125 73.6754L49.2 74.9139C50.05 90.7855 50.775 103.63 50.9 105.189L51.05 107.185L52.725 107.529C59.35 108.905 68.15 108.928 75.25 107.552C76.95 107.23 81.225 106.107 81.25 105.992C81.375 105.441 82.925 76.336 82.85 76.2672C82.775 76.1983 81.975 75.9231 81.1 75.6249C78.65 74.891 76.85 73.813 74.575 71.7488C71.725 69.1571 71.625 68.813 71.675 62.024C71.725 55.8772 72.65 45.5332 74.275 33.125C74.675 29.9139 74.55 30.1433 76.25 30.1433H77.75V46.7717V63.4002H79.625H81.5V46.7717V30.1433H83.125H84.75V46.7717V63.4002H86.5H88.25V46.7717V30.1433H90.125H92V46.7717V63.4002H93.75H95.5V46.7717V30.1433H96.625C97.9 30.1433 97.825 30.0057 98.225 33.125C99.85 45.5332 100.775 55.8772 100.825 62.024C100.875 68.813 100.775 69.1571 97.925 71.7488C95.625 73.813 93.9 74.8681 91.325 75.6708C90.4 75.969 89.6 76.3589 89.55 76.5194C89.45 77.0011 90.95 101.726 91.075 101.863C91.3 102.047 96.125 99.0424 98.45 97.2534C108.625 89.4552 114.95 79.4094 117.375 67.1846C117.925 64.3864 118.15 56.6571 117.775 53.5378C116.35 42.2534 110.95 32.0011 102.225 23.9736C96.275 18.5378 89.05 14.3864 81.375 12.047C75.425 10.2351 70.225 9.47817 63.675 9.52404C61.3 9.54697 58.25 9.68459 56.875 9.86808Z" fill="#418612"/>
<path d="M33.75 44.524C32 46.5653 30.75 50.3955 30.575 54.3864C30.45 56.9781 30.475 57.3221 31.125 59.2029C32.3 62.6891 33.625 64.891 35.75 66.8405C38.4 69.2717 41 70.4414 41 69.2029C41 69.0194 40.5 68.2625 39.9 67.5515C38.1 65.3955 37.125 63.7212 35.725 60.1891L34.375 56.8634V52.6203C34.375 48.9277 34.45 48.1249 34.95 46.4506C35.375 44.9827 35.45 44.4781 35.225 44.2258C34.8 43.7442 34.35 43.8359 33.75 44.524Z" fill="#418612"/>
</svg>
