<svg width="32" height="33" viewBox="0 0 32 33" fill="none" xmlns="http://www.w3.org/2000/svg">
<path d="M22.4533 16.0065C22.9874 16.0132 23.5174 15.9127 24.012 15.7112C24.5066 15.5097 24.9559 15.2112 25.3333 14.8332L29.1066 11.0599C29.355 10.8101 29.4944 10.4721 29.4944 10.1199C29.4944 9.76764 29.355 9.4297 29.1066 9.17988C28.9827 9.05491 28.8352 8.95572 28.6727 8.88803C28.5103 8.82034 28.336 8.78548 28.16 8.78548C27.984 8.78548 27.8097 8.82034 27.6472 8.88803C27.4847 8.95572 27.3373 9.05491 27.2133 9.17988L23.4 12.9399C23.276 13.0649 23.1286 13.164 22.9661 13.2317C22.8036 13.2994 22.6293 13.3343 22.4533 13.3343C22.2773 13.3343 22.103 13.2994 21.9405 13.2317C21.7781 13.164 21.6306 13.0649 21.5066 12.9399L26.2266 8.23322C26.351 8.1089 26.4496 7.96131 26.5169 7.79888C26.5841 7.63645 26.6188 7.46236 26.6188 7.28655C26.6188 7.11074 26.5841 6.93665 26.5169 6.77422C26.4496 6.61179 26.351 6.4642 26.2266 6.33988C26.1023 6.21556 25.9547 6.11695 25.7923 6.04967C25.6299 5.98239 25.4558 5.94776 25.28 5.94776C25.1042 5.94776 24.9301 5.98239 24.7676 6.04967C24.6052 6.11695 24.4576 6.21556 24.3333 6.33988L19.6266 11.0599C19.3783 10.8101 19.2389 10.4721 19.2389 10.1199C19.2389 9.76764 19.3783 9.4297 19.6266 9.17988L23.4 5.40655C23.5243 5.28223 23.6229 5.13464 23.6902 4.97222C23.7575 4.80979 23.7921 4.6357 23.7921 4.45988C23.7921 4.28407 23.7575 4.10998 23.6902 3.94755C23.6229 3.78512 23.5243 3.63753 23.4 3.51322C23.2757 3.3889 23.1281 3.29028 22.9656 3.223C22.8032 3.15572 22.6291 3.12109 22.4533 3.12109C22.2775 3.12109 22.1034 3.15572 21.941 3.223C21.7786 3.29028 21.631 3.3889 21.5066 3.51322L17.7333 7.28655C16.9842 8.03655 16.5635 9.05321 16.5635 10.1132C16.5635 11.1732 16.9842 12.1899 17.7333 12.9399L16 14.6599L4.97332 3.59322L4.83998 3.51322C4.77194 3.4536 4.69558 3.40419 4.61332 3.36655L4.37332 3.27322L4.21332 3.16655H3.85332C3.77377 3.15448 3.69286 3.15448 3.61332 3.16655C3.5326 3.19593 3.45632 3.23631 3.38665 3.28655L3.17332 3.41988H3.07998L2.99998 3.55322C2.94355 3.62361 2.89441 3.69956 2.85332 3.77988C2.81371 3.86095 2.78244 3.94583 2.75998 4.03322C2.75998 4.03322 2.75998 4.12655 2.75998 4.17988C2.43643 6.4351 2.64272 8.73468 3.36249 10.8963C4.08226 13.0579 5.29571 15.0221 6.90665 16.6332L10.4267 20.1399L3.21332 27.3399C3.08835 27.4638 2.98915 27.6113 2.92146 27.7738C2.85377 27.9363 2.81892 28.1105 2.81892 28.2866C2.81892 28.4626 2.85377 28.6368 2.92146 28.7993C2.98915 28.9618 3.08835 29.1093 3.21332 29.2332C3.3379 29.3568 3.48566 29.4546 3.64811 29.5209C3.81056 29.5873 3.98451 29.6209 4.15998 29.6199C4.33546 29.6209 4.50941 29.5873 4.67186 29.5209C4.83431 29.4546 4.98206 29.3568 5.10665 29.2332L13.2 21.2599L16.9733 17.4865L19.64 14.8199C20.384 15.5719 21.3955 15.9986 22.4533 16.0065ZM12.2533 18.4332L8.74665 14.9132C6.82459 12.9649 5.62111 10.4216 5.33332 7.69988L14.1466 16.4999L12.2533 18.4332ZM20.5733 19.1932C20.3222 18.9404 19.981 18.7976 19.6247 18.7964C19.2684 18.7951 18.9262 18.9355 18.6733 19.1866C18.4205 19.4376 18.2777 19.7789 18.2765 20.1352C18.2752 20.4915 18.4156 20.8337 18.6666 21.0865L27.0666 29.4865C27.3213 29.7183 27.6558 29.8425 28 29.8332C28.1755 29.8342 28.3494 29.8006 28.5119 29.7342C28.6743 29.6679 28.8221 29.5701 28.9466 29.4465C29.0716 29.3226 29.1708 29.1751 29.2385 29.0127C29.3062 28.8502 29.341 28.6759 29.341 28.4999C29.341 28.3239 29.3062 28.1496 29.2385 27.9871C29.1708 27.8246 29.0716 27.6772 28.9466 27.5532L20.5733 19.1932Z" fill="#418612"/>
</svg>
